<svg width="18" height="17" viewBox="0 0 18 17" fill="none" xmlns="http://www.w3.org/2000/svg">
<path d="M1.81281 5.55557C2.51852 6.33088 3.23298 6.89928 3.6739 7.63756C5.19775 10.1896 6.63041 12.7978 8.08681 15.392C8.2417 15.6679 8.32913 15.9821 8.52773 16.479C7.2387 16.479 6.1158 16.5454 5.00914 16.442C4.63193 16.4062 4.16728 16.0192 3.95494 15.6615C2.63468 13.4352 1.33816 11.191 0.127828 8.90081C-0.083263 8.50229 -0.0158145 7.7704 0.205268 7.34506C1.1533 5.51342 2.18752 3.72648 3.22798 1.94593C4.39335 -0.0504886 6.40808 -0.0517681 7.5797 1.96764C9.28965 4.91309 10.8972 7.92113 12.6584 10.8334C13.0481 11.4771 13.8824 12.1911 14.5369 12.2167C15.1815 12.2422 15.8572 11.435 16.3631 11.0978C15.44 9.95968 14.6069 9.14733 14.0298 8.17658C12.4922 5.59006 11.0633 2.93455 9.4308 0.0172074C10.9147 0.0172074 12.1537 -0.0415474 13.3791 0.0580818C13.6876 0.0836278 14.0273 0.575386 14.2322 0.926642C15.4637 3.04057 16.7103 5.14811 17.8307 7.32334C18.0793 7.80616 18.043 8.65301 17.7945 9.15371C16.9201 10.9138 15.8934 12.596 14.9279 14.3089C13.6226 16.6246 11.7228 16.6348 10.3751 14.2961C8.69885 11.3877 7.08757 8.43843 5.40634 5.53258C4.25721 3.55276 2.86326 3.62557 1.81281 5.55557Z" fill="#FFCA00"/>
</svg>
